<?xml version="1.0" encoding="UTF-8"?><svg id="a" xmlns="http://www.w3.org/2000/svg" viewBox="0 0 955.06 321.21"><path d="M518.77,303.17c-2.25.28-9.65,1.12-10.46-.97l-6.72-17.33-5.06-12.53-50.95.11-4.08,10.1-7.69,19.98-16.37-.06,8.48-21.69,22.93-58.03,13.54-34.45,10.26-.28c2.06-.06,4.89.15,7.12.27l3.57,9.32,3.36,8.26,5.52,13.79,5.05,12.89,4.7,12.01,10.2,26.1,10.48,26.6c.67,1.7,1.84,3.74,2.66,5.1l-6.53.81ZM491.74,259.68c-.94-3.49-1.33-5.03-2.11-7.05l-5.43-14.19-8.4-21.94-4.89-12.37-6.61,17.4-7.16,18.86-7.37,19.39,41.97-.1Z" fill="#fff"/><path d="M590.62,290.08c-10.26,15.7-34.69,17.1-48.99,6.53-20.69-15.29-21.42-51.66-1.9-67.84,14.33-11.87,34.17-11.74,48.36,1.57l3.43,3.22.11-46.57,13.85-.09-.04,15.46-.02,8.96v15.29s.08,74.86.08,74.86c-1.34.2-3.49.61-4.46.55l-9.13-.59-.23-7.91c-.02-.55-.74-2.52-1.06-3.44ZM591.95,258.63c-1.87-16.68-12.23-26.94-29.88-25.7-6.89.49-12.41,4.98-16.28,10.19-6.5,8.74-7.26,20.12-3.65,30.13.98,2.71,2.72,5.56,4.76,8.28,7.63,10.21,22.06,12.32,32.48,5.36,9.2-6.14,13.75-17.84,12.58-28.26Z" fill="#fff"/><path d="M851.57,302.25c-11.2.6-19.38-.23-28.64-6.46-21.32-14.36-22.94-50.81-3.32-66.97,17.97-14.8,44.99-12.19,59.33,6.18,5.55,7.11,8.13,20.12,7.37,29.52-.46,5.69-1.79,10.88-3.86,16.12-4.44,11.22-18.49,20.93-30.89,21.6ZM861.82,284.59c7.79-6.18,11.04-17.48,10.55-25.73-.79-13.21-9.55-25.75-24.22-27.11-13.44-1.24-24.76,8.12-27.23,21.8-1.67,9.26-.33,17.5,4.5,25.07,7.09,11.11,23.7,16.05,36.4,5.97Z" fill="#fff"/><path d="M787.13,294.89c-9.22,6.59-20.57,7.46-31.25,5.88-9.39-1.39-17.73-5.07-24.45-12,1.06-1.57,1.88-2.82,2.65-3.82l4.74-6.19c8.8,8.57,29.61,16,39.49,6.59,2.25-2.15,3.02-6.17,2.51-9.11-2.16-12.32-34.08-9.74-42.94-23.11-4.94-7.45-4.05-18.56,1.37-25.13,11.59-14.04,42.08-11.67,54.14,1.09-1.38,2.11-2.37,3.7-3.39,5.09l-3.11,4.25-5.32-3.29c-9.98-6.17-30.72-8.31-32.98,4.73-1.19,6.89,8.21,10.03,13.93,11.7l12.07,3.52c6.27,1.83,12.26,4.69,16.85,9.61,5.95,6.39,5.28,23.33-4.31,30.18Z" fill="#fff"/><path d="M685.03,245.62l-3.06,7.92-13.54,35.04-4.3,11.13c-.3.78-1.58,2.82-2.4,2.82l-11.95-.03c-.73,0-2.27-2.1-2.7-3.17l-12.1-30.76-4.82-12-3.59-8.89-4.14-10.44-3.33-8.67-2.03-5.41,1.25-1.13,13.3.18,3.58,9.35,6.13,16.02,7.36,19.3,3.18,8.7c1.18,3.22,2.27,5.81,4.24,9.47l12.74-34.38,6.54-17.64,4.23-10.9,14.46.15-9.04,23.34Z" fill="#fff"/><path d="M900.13,299.68l-.07-73.56.26-3.89,11.29-.16c.41,0,1.75.03,1.85.34.16.46.39,1.49.41,1.99l.45,11.74,2.81-3.2c6.89-7.85,18.23-13.11,28.75-11.72l.27,12.23c.08,3.78-10.6-.63-20.85,6.58-5.31,3.73-10.8,9.54-10.84,16.59l-.27,45.06-12.36-.02c-.35,0-1.69-1.32-1.69-1.95Z" fill="#fff"/><rect x="704.14" y="222.12" width="14.32" height="80.45" fill="#fff"/><circle cx="712.53" cy="196.56" r="9.82" fill="#fff"/><path d="M195.14,57.87l-9.35-1.14-7.92-1-13.34-1.69-5.99-.75-28.01-3.43-10-1.06-9.01-.99-8.98-1.06-7-.9-14-1.78-32.01-3.84-3.79-.46-14.96-1.86L0,34.17.11.02h132.48s210.62-.02,210.62-.02l.06,73.49c-.19.91-.17,1.81-.53,1.85s-1.82.08-2.34.02l-28.81-3.4-8-1-7.11-.94-7.96-1.05-8.99-1.11-9.01-1.05-6.99-.82-11.39-1.35-57-6.77Z" fill="#fff"/><path d="M661.2,68.94c-3.54-3.1-9.1-4.15-13.52-3.47-9.64,1.48-16.39,9.12-16.42,13.99l-.37,62.53-26.5.13c-.79,0-1.88-1.77-1.74-2.47l.05-48.08-.17-48.95,23.09.11c.74,0,2.62.3,3.63.44l1.49,9.59c5.08-3.78,9.72-7.46,15.78-9.7,11.06-4.09,26.53-2.83,35.63,4.09,10.02,7.62,10.81,14.64,12.58,26.52.27,1.83.73,4.25.7,5.81l-.19,11.16-.37,42.97c-.01,1.4.36,3.17.72,5.32.22,1.31-1.29,3.09-2.97,3.12l-22.93.41c-.7.01-2.96-1.24-2.96-1.88v-59.92c0-4.36-2.54-9.11-5.52-11.71Z" fill="#fff"/><path d="M572.73,115.93c1.45,1.25,10.61,9.01,9.06,10.51-1.66,1.6-4.7,4.72-6.74,6.38-7.08,5.74-18.22,10.67-27.42,11.22l-5.12.31c-31.2,1.87-53.08-21.19-52.67-51.78.19-13.95,4.27-26.21,13.22-36.61,2.5-2.91,5.88-5.5,9.23-7.62,11.73-7.41,24.28-9.13,38.19-6.33,7.96,1.6,12.24,4.68,18.72,9.39,4.81,3.49,11.44,14.25,13.63,21.1,2.66,8.31,3.5,16.84,2.75,25.13l-.2,2.2c-.03.38-1.28.5-1.87.5l-65.3.19c.19,4.56,1.73,9.02,4.72,12.33,5.64,6.22,11.04,9.91,20.52,9.04,17.87-1.64,21.67-12.5,23.8-10.66l5.47,4.7ZM562.27,79.44c-1.08-6.33-1.63-7.91-3.03-11.47-4.45-5.14-6.83-7.27-13.84-8.39-12.26-1.96-20.67,7.41-23.06,18.83l3.26.3c1.49.14,3.92.61,5.19.62l31.47.11Z" fill="#fff"/><path d="M774.01,68.61c-8.45-6.15-21.44-3.91-27.57,4.95-1.4,2.02-2.84,5.45-2.84,7.81l.06,20.21.06,18.97-.12,21.43-25.06.15c-.41,0-1.83-.19-2.19-.27-.54-.11-.78-1.4-.78-2.35V42.69s14.96.09,14.96.09l11.4.24.97,10.67c14.23-16.51,44.4-17.62,57.31-1.97,4.74,5.75,7.74,17.19,7.74,24.15v42.7s.08,19.08.08,19.08c0,1.19-.11,2.64-.21,4.39l-24.41.02c-.73,0-2.53-.32-3.7-.52l.04-60.03c0-4.46-1.85-10.09-5.73-12.91Z" fill="#fff"/><path d="M468.72,96.04l-.03,12.51-.07,32.5-29.79-.36.1-109.76c0-1.21-2.63-1.9-3.36-1.91l-32.99-.08V2.87s102.4-.03,102.4-.03l.13,22.69c0,.8-.45,2.76-.67,3.55l-32.94-.06c-.52.18-2.55,2.06-2.67,2.74l-.09,16.74v34.06s-.02,13.49-.02,13.49Z" fill="#fff"/><path d="M942.12,135.98c-19.55,12.78-53.57,7.95-71.13-7.34l12.64-18.05c1.06.61,2.49,1.48,3.67,2.29,21.67,14.91,43.52,9,40.3-.11-2.15-6.08-8.82-7.64-15.83-9.62l-5.48-1.55c-7.64-2.16-16.09-4.9-22.39-9.49-11.99-8.72-12.17-27.31-2.66-39.18.95-1.18,2.76-2.83,4.43-4.17,15.5-12.51,39.28-10.57,56.45-3.45,3.45,1.43,6.82,3.85,10.09,6.1l-3.67,6.21-7.03,11.91c-8.44-4.26-16.39-8.3-26.05-8.64-5.98-.21-14.22,2.67-13.22,8.26.3,1.7,2.25,4.5,3.82,5.24,16.08,7.65,22.17,5.51,36.07,13.89,3.85,2.32,7.77,6.39,10.02,10.73,6.17,11.94,2.47,28.77-10.01,36.94Z" fill="#fff"/><rect x="826.92" y="42.86" width="28.09" height="99.69" transform="translate(-.1 .89) rotate(-.06)" fill="#fff"/><path d="M853.69,26.75c-7.46,8.81-20.8,7.21-25.63.5-5.66-7.85-4.72-16.97,2.94-22.32,6.01-4.2,14.47-4.16,20.05.11,7.12,5.44,8.3,15.01,2.63,21.71Z" fill="#fff"/><path d="M234.62,239.56l-14.74,39.36-5.84,15.67-8.49,24.15c-.43,1.22-1.7,2.4-2.97,2.4l-51.11.05c-.45,0-1.63-1.26-1.41-1.89l9.88-28.58,4.17-12.01,10.7-31.01,5.09-14.99,9.9-28.07,13.11-38.02,4.36-12.44,5.6-16.52,5.41-15.96c.56-.29,2.91-.41,4.11-.26l7.12.92,7.98,1.03,15.05,1.96,45.96,5.66,42.11,5.18c.55.07,1.67.69,1.67,2.75l-.04,181.68-59.67.58-1.94-3.63-12.51-34.39-5.76-15.43-12.27-33.15-5.02-14.19c-.32-.9-1.58-2.46-2.4-3.02l-8.05,22.16Z" fill="#fff"/><path d="M153.18,113.59c.91.11,2.35.36,2.22.73l-.67,1.93-7.71,22.31-9.99,28.86-4.54,13.18-7.94,23.01-10.61,30.93-11.75,34-12.25,35.97-2.99,8.82-2.39,7.75H.03s.02-223.32.02-223.32c0-.74.16-1.92.26-2.23.15-.47,1.38-.33,2.14-.24l8.08.99,18.87,2.3,30.1,3.62,9.01,1.07,8,.94,9.98,1.17,8.01.94,7,.85,9,1.13,8.02,1,5.99.74,28.65,3.54Z" fill="#fff"/></svg>